<?xml version="1.0" encoding="UTF-8"?>
<svg xmlns="http://www.w3.org/2000/svg" xmlns:xlink="http://www.w3.org/1999/xlink" width="563.05pt" height="117.13pt" viewBox="0 0 563.05 117.13" version="1.1">
<defs>
<clipPath id="clip1">
  <path d="M 440 0 L 563.050781 0 L 563.050781 90 L 440 90 Z M 440 0 "/>
</clipPath>
<clipPath id="clip2">
  <path d="M 480 74 L 524 74 L 524 117.128906 L 480 117.128906 Z M 480 74 "/>
</clipPath>
</defs>
<g id="surface1">
<path style=" stroke:none;fill-rule:nonzero;fill:rgb(13.299561%,11.799622%,12.199402%);fill-opacity:1;" d="M 57.890625 90.230469 L 50.195313 90.230469 L 8.429688 38.613281 L 8.429688 90.230469 L 0 90.230469 L 0 23.171875 L 7.148438 23.171875 L 49.460938 75.089844 L 49.460938 23.171875 L 57.890625 23.171875 "/>
<path style=" stroke:none;fill-rule:nonzero;fill:rgb(13.299561%,11.799622%,12.199402%);fill-opacity:1;" d="M 89.765625 45.199219 C 77.492188 45.199219 68.054688 55.03125 68.054688 67.714844 C 68.054688 81.28125 77.121094 91.113281 89.765625 91.113281 C 102.953125 91.113281 112.019531 81.675781 112.019531 67.714844 C 112.019531 54.636719 102.679688 45.199219 89.765625 45.199219 M 89.671875 53.0625 C 97.824219 53.0625 103.683594 59.257813 103.683594 67.8125 C 103.683594 77.351563 98.28125 83.25 89.671875 83.25 C 81.796875 83.25 76.390625 77.054688 76.390625 67.714844 C 76.390625 59.257813 81.980469 53.0625 89.671875 53.0625 "/>
<path style=" stroke:none;fill-rule:nonzero;fill:rgb(13.299561%,11.799622%,12.199402%);fill-opacity:1;" d="M 129.789063 46.085938 L 129.789063 56.210938 L 129.972656 56.210938 C 134.09375 48.441406 138.035156 45.199219 141.878906 45.199219 C 145.175781 45.199219 148.292969 46.871094 151.683594 50.3125 L 147.375 57.878906 C 144.902344 55.328125 141.699219 53.554688 139.777344 53.554688 C 134.1875 53.554688 129.789063 59.554688 129.789063 67.121094 L 129.789063 90.230469 L 121.636719 90.230469 L 121.636719 46.085938 "/>
<path style=" stroke:none;fill-rule:nonzero;fill:rgb(13.299561%,11.799622%,12.199402%);fill-opacity:1;" d="M 185.304688 57.585938 C 180.636719 54.246094 177.519531 53.261719 173.949219 53.261719 C 166.527344 53.261719 161.398438 59.257813 161.398438 68.207031 C 161.398438 77.351563 166.894531 82.859375 175.324219 82.859375 C 178.800781 82.859375 182.097656 81.875 186.222656 79.90625 L 186.222656 88.558594 C 183.472656 89.933594 178.25 91.113281 173.949219 91.113281 C 161.675781 91.113281 153.0625 81.96875 153.0625 68.992188 C 153.0625 54.441406 160.941406 45.199219 173.398438 45.199219 C 178.160156 45.199219 181.367188 46.378906 185.304688 48.25 "/>
<path style=" stroke:none;fill-rule:nonzero;fill:rgb(13.299561%,11.799622%,12.199402%);fill-opacity:1;" d="M 214.429688 45.199219 C 202.15625 45.199219 192.722656 55.03125 192.722656 67.714844 C 192.722656 81.28125 201.789063 91.113281 214.429688 91.113281 C 227.621094 91.113281 236.691406 81.675781 236.691406 67.714844 C 236.691406 54.636719 227.34375 45.199219 214.429688 45.199219 M 214.339844 53.0625 C 222.492188 53.0625 228.355469 59.257813 228.355469 67.8125 C 228.355469 77.351563 222.949219 83.25 214.339844 83.25 C 206.464844 83.25 201.058594 77.054688 201.058594 67.714844 C 201.058594 59.257813 206.644531 53.0625 214.339844 53.0625 "/>
<path style=" stroke:none;fill-rule:nonzero;fill:rgb(13.299561%,11.799622%,12.199402%);fill-opacity:1;" d="M 253.726563 51.886719 L 253.910156 51.886719 C 257.019531 47.65625 261.601563 45.199219 266.179688 45.199219 C 273.96875 45.199219 280.195313 50.898438 280.195313 62.996094 L 280.195313 90.230469 L 272.042969 90.230469 L 272.042969 62.898438 C 272.042969 56.40625 268.929688 52.179688 263.984375 52.179688 C 260.410156 52.179688 257.574219 53.949219 253.726563 58.570313 L 253.726563 90.230469 L 245.574219 90.230469 L 245.574219 46.082031 L 253.726563 46.082031 "/>
<path style=" stroke:none;fill-rule:nonzero;fill:rgb(13.299561%,11.799622%,12.199402%);fill-opacity:1;" d="M 315.464844 57.488281 C 310.882813 54.246094 306.574219 52.871094 303.550781 52.871094 C 300.257813 52.871094 298.148438 54.539063 298.148438 56.898438 C 298.148438 58.867188 300.902344 61.226563 308.132813 65.746094 C 314.914063 70.566406 317.382813 73.613281 317.382813 78.136719 C 317.382813 85.902344 311.613281 91.113281 303.828125 91.113281 C 298.792969 91.113281 294.851563 90.035156 289.539063 87.082031 L 289.539063 77.644531 C 294.851563 81.578125 299.710938 83.445313 303.003906 83.445313 C 306.304688 83.25 309.046875 81.578125 309.046875 78.433594 C 309.046875 72.335938 289.816406 69.09375 289.816406 57.195313 C 289.816406 49.722656 295.128906 45.199219 303.367188 45.199219 C 307.21875 45.199219 311.15625 46.378906 315.464844 48.835938 "/>
<path style=" stroke:none;fill-rule:nonzero;fill:rgb(13.299561%,11.799622%,12.199402%);fill-opacity:1;" d="M 352.925781 90.230469 L 352.925781 84.625 C 349.535156 88.558594 344.773438 91.113281 340.738281 91.113281 C 332.40625 91.113281 326.542969 84.726563 326.542969 73.515625 L 326.542969 46.085938 L 334.695313 46.085938 L 334.695313 74.105469 C 334.695313 80.300781 337.535156 83.839844 343.125 83.839844 C 346.785156 83.839844 350.269531 81.675781 352.925781 77.644531 L 352.925781 46.085938 L 361.074219 46.085938 L 361.074219 90.230469 "/>
<path style=" stroke:none;fill-rule:nonzero;fill:rgb(13.299561%,11.799622%,12.199402%);fill-opacity:1;" d="M 372.800781 90.230469 L 380.953125 90.230469 L 380.953125 23.171875 L 372.800781 23.171875 Z M 372.800781 90.230469 "/>
<path style=" stroke:none;fill-rule:nonzero;fill:rgb(13.299561%,11.799622%,12.199402%);fill-opacity:1;" d="M 402.203125 46.085938 L 415.207031 46.085938 L 415.207031 53.949219 L 402.203125 53.949219 L 402.203125 76.5625 C 402.203125 81.777344 405.679688 83.25 408.0625 83.25 C 410.996094 83.25 414.019531 82.167969 417.3125 80.003906 L 417.3125 88.167969 C 414.472656 89.835938 410.074219 91.113281 407.421875 91.113281 C 398.535156 91.113281 394.050781 85.214844 394.050781 77.253906 L 394.050781 53.949219 L 386.90625 53.949219 L 386.90625 52.964844 L 402.203125 36.9375 "/>
<g clip-path="url(#clip1)" clip-rule="nonzero">
<path style=" stroke:none;fill-rule:nonzero;fill:rgb(13.299561%,11.799622%,12.199402%);fill-opacity:1;" d="M 535.6875 33.992188 L 508.054688 61.621094 L 535.6875 89.25 L 563.308594 61.621094 Z M 440.007813 61.648438 L 467.628906 89.273438 L 495.257813 61.648438 L 467.628906 34.019531 Z M 501.671875 -0.0234375 L 474.046875 27.609375 L 501.671875 55.230469 L 529.296875 27.609375 Z M 501.671875 -0.0234375 "/>
</g>
<g clip-path="url(#clip2)" clip-rule="nonzero">
<path style=" stroke:none;fill-rule:nonzero;fill:rgb(13.299561%,11.799622%,12.199402%);fill-opacity:1;" d="M 523.128906 95.640625 C 523.128906 107.507813 513.503906 117.128906 501.644531 117.128906 C 489.773438 117.128906 480.152344 107.507813 480.152344 95.640625 C 480.152344 83.777344 489.773438 74.15625 501.644531 74.15625 C 513.503906 74.15625 523.128906 83.777344 523.128906 95.640625 "/>
</g>
</g>
</svg>
