<?xml version="1.0" encoding="UTF-8"?>
<svg xmlns="http://www.w3.org/2000/svg" xmlns:xlink="http://www.w3.org/1999/xlink" width="891.82pt" height="185.48pt" viewBox="0 0 891.82 185.48" version="1.1">
<defs>
<clipPath id="clip1">
  <path d="M 696 0 L 891.820313 0 L 891.820313 142 L 696 142 Z M 696 0 "/>
</clipPath>
<clipPath id="clip2">
  <path d="M 760 117 L 829 117 L 829 185.480469 L 760 185.480469 Z M 760 117 "/>
</clipPath>
</defs>
<g id="surface1">
<path style=" stroke:none;fill-rule:nonzero;fill:rgb(100%,100%,100%);fill-opacity:1;" d="M 91.652344 142.894531 L 79.46875 142.894531 L 13.34375 61.167969 L 13.34375 142.894531 L 0 142.894531 L 0 36.726563 L 11.316406 36.726563 L 78.304688 118.917969 L 78.304688 36.726563 L 91.652344 36.726563 "/>
<path style=" stroke:none;fill-rule:nonzero;fill:rgb(100%,100%,100%);fill-opacity:1;" d="M 142.117188 71.597656 C 122.683594 71.597656 107.746094 87.164063 107.746094 107.242188 C 107.746094 128.726563 122.097656 144.292969 142.117188 144.292969 C 162.992188 144.292969 177.351563 129.351563 177.351563 107.242188 C 177.351563 86.542969 162.558594 71.597656 142.117188 71.597656 M 141.96875 84.050781 C 154.871094 84.050781 164.152344 93.855469 164.152344 107.402344 C 164.152344 122.5 155.597656 131.84375 141.96875 131.84375 C 129.5 131.84375 120.941406 122.03125 120.941406 107.242188 C 120.941406 93.855469 129.789063 84.050781 141.96875 84.050781 "/>
<path style=" stroke:none;fill-rule:nonzero;fill:rgb(100%,100%,100%);fill-opacity:1;" d="M 205.480469 73 L 205.480469 89.035156 L 205.769531 89.035156 C 212.296875 76.730469 218.535156 71.601563 224.625 71.601563 C 229.84375 71.601563 234.777344 74.246094 240.140625 79.691406 L 233.324219 91.675781 C 229.410156 87.636719 224.335938 84.828125 221.292969 84.828125 C 212.441406 84.828125 205.480469 94.324219 205.480469 106.308594 L 205.480469 142.894531 L 192.574219 142.894531 L 192.574219 73 "/>
<path style=" stroke:none;fill-rule:nonzero;fill:rgb(100%,100%,100%);fill-opacity:1;" d="M 293.371094 91.210938 C 285.980469 85.921875 281.046875 84.363281 275.390625 84.363281 C 263.644531 84.363281 255.519531 93.855469 255.519531 108.023438 C 255.519531 122.5 264.222656 131.222656 277.566406 131.222656 C 283.078125 131.222656 288.296875 129.660156 294.824219 126.546875 L 294.824219 140.246094 C 290.476563 142.425781 282.203125 144.292969 275.390625 144.292969 C 255.960938 144.292969 242.328125 129.8125 242.328125 109.265625 C 242.328125 86.226563 254.804688 71.597656 274.519531 71.597656 C 282.0625 71.597656 287.140625 73.46875 293.371094 76.425781 "/>
<path style=" stroke:none;fill-rule:nonzero;fill:rgb(100%,100%,100%);fill-opacity:1;" d="M 339.484375 71.597656 C 320.050781 71.597656 305.117188 87.164063 305.117188 107.242188 C 305.117188 128.726563 319.472656 144.292969 339.484375 144.292969 C 360.371094 144.292969 374.722656 129.351563 374.722656 107.242188 C 374.722656 86.542969 359.929688 71.597656 339.484375 71.597656 M 339.34375 84.050781 C 352.246094 84.050781 361.527344 93.855469 361.527344 107.402344 C 361.527344 122.5 352.972656 131.84375 339.34375 131.84375 C 326.871094 131.84375 318.3125 122.03125 318.3125 107.242188 C 318.3125 93.855469 327.160156 84.050781 339.34375 84.050781 "/>
<path style=" stroke:none;fill-rule:nonzero;fill:rgb(100%,100%,100%);fill-opacity:1;" d="M 401.695313 82.183594 L 401.984375 82.183594 C 406.914063 75.492188 414.160156 71.597656 421.414063 71.597656 C 433.742188 71.597656 443.601563 80.625 443.601563 99.777344 L 443.601563 142.894531 L 430.695313 142.894531 L 430.695313 99.621094 C 430.695313 89.34375 425.769531 82.652344 417.9375 82.652344 C 412.28125 82.652344 407.789063 85.449219 401.695313 92.769531 L 401.695313 142.894531 L 388.789063 142.894531 L 388.789063 73 L 401.695313 73 "/>
<path style=" stroke:none;fill-rule:nonzero;fill:rgb(100%,100%,100%);fill-opacity:1;" d="M 499.4375 91.054688 C 492.1875 85.921875 485.363281 83.746094 480.582031 83.746094 C 475.363281 83.746094 472.027344 86.386719 472.027344 90.121094 C 472.027344 93.234375 476.382813 96.972656 487.832031 104.132813 C 498.570313 111.757813 502.476563 116.585938 502.476563 123.746094 C 502.476563 136.042969 493.347656 144.292969 481.019531 144.292969 C 473.046875 144.292969 466.804688 142.578125 458.394531 137.910156 L 458.394531 122.96875 C 466.804688 129.191406 474.496094 132.152344 479.710938 132.152344 C 484.933594 131.84375 489.28125 129.191406 489.28125 124.214844 C 489.28125 114.5625 458.832031 109.425781 458.832031 90.589844 C 458.832031 78.761719 467.246094 71.597656 480.289063 71.597656 C 486.382813 71.597656 492.617188 73.46875 499.4375 77.359375 "/>
<path style=" stroke:none;fill-rule:nonzero;fill:rgb(100%,100%,100%);fill-opacity:1;" d="M 558.746094 142.894531 L 558.746094 134.019531 C 553.382813 140.246094 545.839844 144.292969 539.453125 144.292969 C 526.261719 144.292969 516.980469 134.179688 516.980469 116.429688 L 516.980469 73 L 529.886719 73 L 529.886719 117.363281 C 529.886719 127.171875 534.382813 132.773438 543.230469 132.773438 C 549.023438 132.773438 554.539063 129.351563 558.746094 122.96875 L 558.746094 73 L 571.648438 73 L 571.648438 142.894531 "/>
<path style=" stroke:none;fill-rule:nonzero;fill:rgb(100%,100%,100%);fill-opacity:1;" d="M 590.210938 142.894531 L 603.117188 142.894531 L 603.117188 36.726563 L 590.210938 36.726563 Z M 590.210938 142.894531 "/>
<path style=" stroke:none;fill-rule:nonzero;fill:rgb(100%,100%,100%);fill-opacity:1;" d="M 636.761719 73 L 657.351563 73 L 657.351563 85.449219 L 636.761719 85.449219 L 636.761719 121.253906 C 636.761719 129.507813 642.265625 131.84375 646.039063 131.84375 C 650.6875 131.84375 655.472656 130.128906 660.6875 126.703125 L 660.6875 139.625 C 656.191406 142.269531 649.226563 144.292969 645.023438 144.292969 C 630.957031 144.292969 623.855469 134.953125 623.855469 122.347656 L 623.855469 85.449219 L 612.546875 85.449219 L 612.546875 83.894531 L 636.761719 58.519531 "/>
<g clip-path="url(#clip1)" clip-rule="nonzero">
<path style=" stroke:none;fill-rule:nonzero;fill:rgb(100%,100%,100%);fill-opacity:1;" d="M 848.09375 53.859375 L 804.347656 97.597656 L 848.09375 141.339844 L 891.820313 97.597656 Z M 696.613281 97.640625 L 740.347656 141.375 L 784.085938 97.640625 L 740.347656 53.902344 Z M 794.238281 0.00390625 L 750.507813 43.753906 L 794.238281 87.476563 L 837.976563 43.753906 Z M 794.238281 0.00390625 "/>
</g>
<g clip-path="url(#clip2)" clip-rule="nonzero">
<path style=" stroke:none;fill-rule:nonzero;fill:rgb(100%,100%,100%);fill-opacity:1;" d="M 828.210938 151.457031 C 828.210938 170.25 812.976563 185.480469 794.195313 185.480469 C 775.402344 185.480469 760.171875 170.25 760.171875 151.457031 C 760.171875 132.671875 775.402344 117.441406 794.195313 117.441406 C 812.976563 117.441406 828.210938 132.671875 828.210938 151.457031 "/>
</g>
</g>
</svg>
